<?xml version="1.0" encoding="UTF-8"?>
<!DOCTYPE svg PUBLIC "-//W3C//DTD SVG 1.1//EN" "http://www.w3.org/Graphics/SVG/1.1/DTD/svg11.dtd">
<svg version="1.1" xmlns="http://www.w3.org/2000/svg" xmlns:xlink="http://www.w3.org/1999/xlink" x="0" y="0" width="512" height="512" viewBox="0, 0, 512, 512">
  <g id="Layer_1">
    <g>
      <path d="M233.585,65.5 L323.415,65.5 C333.679,65.5 342,73.559 342,83.5 L342,131.5 C342,141.441 333.679,149.5 323.415,149.5 L233.585,149.5 C223.321,149.5 215,141.441 215,131.5 L215,83.5 C215,73.559 223.321,65.5 233.585,65.5 z" fill="#007ACC"/>
      <path d="M233.585,65.5 L323.415,65.5 C333.679,65.5 342,73.559 342,83.5 L342,131.5 C342,141.441 333.679,149.5 323.415,149.5 L233.585,149.5 C223.321,149.5 215,141.441 215,131.5 L215,83.5 C215,73.559 223.321,65.5 233.585,65.5 z" fill-opacity="0" stroke="#007ACC" stroke-width="1"/>
    </g>
    <g>
      <path d="M371.085,212.5 L460.915,212.5 C471.179,212.5 479.5,220.559 479.5,230.5 L479.5,278.5 C479.5,288.441 471.179,296.5 460.915,296.5 L371.085,296.5 C360.821,296.5 352.5,288.441 352.5,278.5 L352.5,230.5 C352.5,220.559 360.821,212.5 371.085,212.5 z" fill="#007ACC"/>
      <path d="M371.085,212.5 L460.915,212.5 C471.179,212.5 479.5,220.559 479.5,230.5 L479.5,278.5 C479.5,288.441 471.179,296.5 460.915,296.5 L371.085,296.5 C360.821,296.5 352.5,288.441 352.5,278.5 L352.5,230.5 C352.5,220.559 360.821,212.5 371.085,212.5 z" fill-opacity="0" stroke="#007ACC" stroke-width="1"/>
    </g>
    <g>
      <path d="M140.585,364.5 L230.415,364.5 C240.679,364.5 249,372.559 249,382.5 L249,430.5 C249,440.441 240.679,448.5 230.415,448.5 L140.585,448.5 C130.321,448.5 122,440.441 122,430.5 L122,382.5 C122,372.559 130.321,364.5 140.585,364.5 z" fill="#007ACC"/>
      <path d="M140.585,364.5 L230.415,364.5 C240.679,364.5 249,372.559 249,382.5 L249,430.5 C249,440.441 240.679,448.5 230.415,448.5 L140.585,448.5 C130.321,448.5 122,440.441 122,430.5 L122,382.5 C122,372.559 130.321,364.5 140.585,364.5 z" fill-opacity="0" stroke="#007ACC" stroke-width="1"/>
    </g>
    <g>
      <path d="M190.585,212.5 L280.415,212.5 C290.679,212.5 299,220.559 299,230.5 L299,278.5 C299,288.441 290.679,296.5 280.415,296.5 L190.585,296.5 C180.321,296.5 172,288.441 172,278.5 L172,230.5 C172,220.559 180.321,212.5 190.585,212.5 z" fill="#007ACC"/>
      <path d="M190.585,212.5 L280.415,212.5 C290.679,212.5 299,220.559 299,230.5 L299,278.5 C299,288.441 290.679,296.5 280.415,296.5 L190.585,296.5 C180.321,296.5 172,288.441 172,278.5 L172,230.5 C172,220.559 180.321,212.5 190.585,212.5 z" fill-opacity="0" stroke="#007ACC" stroke-width="1"/>
    </g>
    <g>
      <path d="M189.584,105.114 C49.174,109.131 37.519,392.775 122,391.5" fill-opacity="0" stroke="#656E74" stroke-width="6"/>
      <path d="M189.188,111.101 L205.549,106.172 L189.981,99.127 z" fill="#656E74" fill-opacity="1" stroke="#656E74" stroke-width="6" stroke-opacity="1"/>
    </g>
    <g>
      <path d="M424.075,185.546 C419.956,140.758 380.918,112.985 342,109.5" fill-opacity="0" stroke="#656E74" stroke-width="6"/>
      <path d="M418.078,185.382 L423.636,201.54 L430.073,185.711 z" fill="#656E74" fill-opacity="1" stroke="#656E74" stroke-width="6" stroke-opacity="1"/>
    </g>
    <g>
      <path d="M279.478,407.982 C347.699,404.88 413.686,357.272 415.5,296.5" fill-opacity="0" stroke="#656E74" stroke-width="6"/>
      <path d="M279.616,401.984 L263.482,407.615 L279.34,413.981 z" fill="#656E74" fill-opacity="1" stroke="#656E74" stroke-width="6" stroke-opacity="1"/>
    </g>
    <g>
      <path d="M241.361,187.018 C245.959,176.354 249.721,169.083 258.5,149.5" fill-opacity="0" stroke="#656E74" stroke-width="6"/>
      <path d="M235.797,184.773 L235.374,201.856 L246.925,189.263 z" fill="#656E74" fill-opacity="1" stroke="#656E74" stroke-width="6" stroke-opacity="1"/>
    </g>
    <g>
      <path d="M195.311,339.821 C204.786,315.026 204.219,320.551 215,296.5" fill-opacity="0" stroke="#656E74" stroke-width="6"/>
      <path d="M189.687,337.731 L189.739,354.819 L200.935,341.91 z" fill="#656E74" fill-opacity="1" stroke="#656E74" stroke-width="6" stroke-opacity="1"/>
    </g>
  </g>
</svg>
